<?xml version="1.0" encoding="UTF-8"?>
<svg id="Layer_1" data-name="Layer 1" xmlns="http://www.w3.org/2000/svg" viewBox="0 0 792 504">
  <defs>
    <style>
      .cls-1 {
        fill: none;
        stroke: #fafafa;
        stroke-miterlimit: 10;
        stroke-width: 2px;
      } 
    </style>
  </defs>
  <line stroke="red" class="cls-1" x1="226.28" y1="119.13" x2="226.28" y2="352"/>
  <line class="cls-1" x1="278.85" y1="138.13" x2="226.81" y2="119.73"/>
  <line class="cls-1" x1="207.61" y1="363.45" x2="207.61" y2="443.86"/>
  <line class="cls-1" x1="206.95" y1="442.92" x2="269.05" y2="464.63"/>
  <line class="cls-1" x1="268.73" y1="464.57" x2="529.81" y2="464.57"/>
  <line class="cls-1" x1="528.81" y1="381.82" x2="528.81" y2="465.54"/>
  <line class="cls-1" x1="269.11" y1="383.53" x2="269.11" y2="465.1"/>
  <line class="cls-1" x1="269.22" y1="382.99" x2="278.18" y2="368.69"/>
  <line class="cls-1" x1="269.38" y1="383.96" x2="529.45" y2="383.96"/>
  <line class="cls-1" x1="511.09" y1="368.16" x2="529.18" y2="382.57"/>
  <line class="cls-1" x1="268.2" y1="413.45" x2="528.14" y2="413.45"/>
  <line class="cls-1" x1="207.05" y1="394.16" x2="268.4" y2="413.14"/>
  <line class="cls-1" x1="208.07" y1="364.35" x2="270.1" y2="384.1"/>
  <line class="cls-1" x1="225.54" y1="352" x2="277.45" y2="368.46"/>
  <line class="cls-1" x1="207.15" y1="364.29" x2="226.28" y2="352"/>
  <line class="cls-1" x1="278.18" y1="137.21" x2="278.18" y2="368.69"/>
  <line class="cls-1" x1="511.72" y1="137.21" x2="511.72" y2="369.38"/>
  <line class="cls-1" x1="278.18" y1="368.69" x2="511.72" y2="368.69"/>
  <path class="cls-1" d="M278.18,138.01c9.49-13.05,33.6-42.16,74.53-54.03,54.53-15.81,116.56,5.5,159.14,53.93"/>
  <path class="cls-1" d="M226.09,119.74c46.08-62.45,121.87-90.02,187.45-70.05,64.05,19.51,92.83,76.59,98.28,87.95"/>
</svg>