<?xml version="1.0" encoding="UTF-8"?>
<svg id="Layer_3" data-name="Layer 3" xmlns="http://www.w3.org/2000/svg" viewBox="0 0 792 504">
  <defs>
    <style>
      .cls-1 {
        fill: none;
        stroke: #fafafa;
        stroke-miterlimit: 10;
        stroke-width: 2px;
      }
    </style>
  </defs>
  <path class="cls-1" d="M515.09,99.3l33.66,34.22-33.66-34.22Z"/>
  <line class="cls-1" x1="536.34" y1="454.99" x2="536.34" y2="487.24"/>
  <path class="cls-1" d="M452.76,378.43s.01,29.93,34.61,22.58"/>
  <path class="cls-1" d="M336.62,378.43s-.97,29.93-35.57,22.58"/>
  <line class="cls-1" x1="487.37" y1="401.01" x2="487.37" y2="434.14"/>
  <line class="cls-1" x1="301.05" y1="401.01" x2="301.05" y2="433.29"/>
  <line class="cls-1" x1="301.05" y1="401.01" x2="272.12" y2="378.44"/>
  <path class="cls-1" d="M312.85,351.11s-5.66,35.04-41.71,26.43"/>
  <line class="cls-1" x1="487.37" y1="433.03" x2="301.05" y2="433.03"/>
  <line class="cls-1" x1="272.12" y1="378.44" x2="272.12" y2="410.61"/>
  <line class="cls-1" x1="301.75" y1="433.29" x2="271.63" y2="409.65"/>
  <path class="cls-1" d="M240.49,133.53h0c40.63-40.28,106.51-40.28,147.15,0l6.98,6.92,6.99-6.92c40.63-40.28,106.51-40.28,147.15,0h0c40.63,40.28,40.63,105.58,0,145.85l-77.15,76.48c-5.81,5.76-12.14,12-18.83,18v-9.12s-116.15,0-116.15,0v9.25c-6.75-6.05-13.12-12.33-18.98-18.13l-77.15-76.48c-40.63-40.28-40.63-105.58,0-145.85Z"/>
  <line class="cls-1" x1="391.95" y1="137.95" x2="361.23" y2="107.07"/>
  <path class="cls-1" d="M269.91,308.55l-63.55-62.75c-40.78-40.28-40.78-105.58,0-145.85h0c40.78-40.28,106.91-40.28,147.69,0l7.01,6.92,7.01-6.92c40.78-40.28,106.91-40.28,147.69,0h0"/>
  <line class="cls-1" x1="487.93" y1="402.08" x2="452.76" y2="373.86"/>
  <line class="cls-1" x1="271.54" y1="402.18" x2="225.85" y2="402.18"/>
  <line class="cls-1" x1="297.26" y1="457.58" x2="226.28" y2="402.2"/>
  <line class="cls-1" x1="294.81" y1="456.12" x2="536.34" y2="456.12"/>
  <line class="cls-1" x1="536.7" y1="455.86" x2="487.37" y2="417.78"/>
  <polyline class="cls-1" points="226.28 401.01 226.28 404.04 226.28 432.83"/>
  <line class="cls-1" x1="295.99" y1="456.14" x2="295.99" y2="487.18"/>
  <line class="cls-1" x1="295.55" y1="486.34" x2="225.85" y2="431.91"/>
  <line class="cls-1" x1="294.81" y1="486.09" x2="536.47" y2="486.09"/>
  <line class="cls-1" x1="336.62" y1="378.74" x2="336.62" y2="373.33"/>
  <line class="cls-1" x1="452.76" y1="379.4" x2="452.76" y2="373.99"/>
</svg>