<?xml version="1.0" encoding="UTF-8"?>
<svg id="Layer_4" data-name="Layer 4" xmlns="http://www.w3.org/2000/svg" viewBox="0 0 792 504">
  <defs>
    <style>
      .cls-1 {
        fill: none;
        stroke: #fafafa;
        stroke-miterlimit: 10;
        stroke-width: 2px;
      }
    </style>
  </defs>
  <g>
    <line class="cls-1" x1="208.69" y1="136.12" x2="208.69" y2="363.11"/>
    <line class="cls-1" x1="568.76" y1="363.11" x2="207.96" y2="363.11"/>
    <line class="cls-1" x1="175.1" y1="104.48" x2="175.1" y2="332.05"/>
    <line class="cls-1" x1="208.69" y1="363.11" x2="174.51" y2="330.78"/>
    <line class="cls-1" x1="209.28" y1="136.12" x2="175.1" y2="103.8"/>
    <line class="cls-1" x1="175.1" y1="104.48" x2="244.92" y2="104.48"/>
    <path class="cls-1" d="M207.65,136.12h57.98s53.02-36.38,127.2-36.58c74.91-.2,121.73,36.58,121.73,36.58h54.19"/>
    <line class="cls-1" x1="568.76" y1="136.12" x2="568.76" y2="364.58"/>
    <line class="cls-1" x1="568.76" y1="136.12" x2="534.57" y2="103.8"/>
    <path class="cls-1" d="M244.92,104.48s53.02-36.38,127.2-36.58c74.91-.2,121.73,36.58,121.73,36.58"/>
    <line class="cls-1" x1="493.06" y1="104.48" x2="535.23" y2="104.48"/>
    <line class="cls-1" x1="175.1" y1="315.15" x2="116.09" y2="315.15"/>
    <line class="cls-1" x1="187.9" y1="385.91" x2="117.14" y2="315.15"/>
    <line class="cls-1" x1="623.39" y1="385.63" x2="187.19" y2="385.63"/>
    <line class="cls-1" x1="622.75" y1="384.84" x2="568.93" y2="331.02"/>
    <line class="cls-1" x1="187.9" y1="435.32" x2="117.14" y2="364.56"/>
    <line class="cls-1" x1="187.19" y1="385.63" x2="187.19" y2="435.32"/>
    <line class="cls-1" x1="622.38" y1="383.97" x2="622.38" y2="436.1"/>
    <line class="cls-1" x1="623.39" y1="435.32" x2="187.19" y2="435.32"/>
  </g>
  <line class="cls-1" x1="117.57" y1="315.15" x2="117.57" y2="364.84"/>
</svg>