<?xml version="1.0" encoding="UTF-8"?>
<svg id="Layer_1" data-name="Layer 1" xmlns="http://www.w3.org/2000/svg" viewBox="0 0 792 504">
  <defs>
    <style>
      .cls-1 {
        fill: none;
        stroke: #fafafa;
        stroke-miterlimit: 10;
        stroke-width: 2px;
      }
    </style>
  </defs>
  <path class="cls-1" d="M271.67,181.03c.48,2.95,1.28,10.33-2.36,18.29-2.19,4.78-5.17,7.97-7.21,9.79.59,2.42,1.17,4.81,1.76,7.23-18.03,36.12-36.05,72.26-54.06,108.38-2.9,2.7-7.13,3.24-10.49,1.35-3.55-2-5.41-6.33-4.4-10.48,1.76-4.08,3.55-8.16,5.31-12.24,1.28-2.94.31-6.34-2.15-8.02-2.7-1.85-6.55-1.11-8.57,1.79-4.93,4.84-10.85,12.35-11.36,22.05-.22,4.34.78,6.39.92,10.79.19,6.06-1.3,14.88-9.52,26.09-1.64.8-19.9,10.2-21.95,27.79-.86,7.29,1.32,14.08,1.96,15.99.53,1.61,2.91,8.21,8.95,14.56,4,4.21,9.09,6.86,19.1,12,9.02,4.65,13.54,6.96,17.27,7.59,4.58.77,15.76,2.84,23.34-4.63,6.34-6.25,6.32-15.33,6.23-17.81-1.4-6.58-4.11-23.98,5.55-38.54,2.03-3.07,4.78-5.87,4.78-5.87,6.02-6.65,7.62-6.03,10.7-10.12,5.21-6.94,4.87-14.55,4.7-18.63-.09-2.14-.43-4.01-1.81-5.22-1.61-1.41-4.32-1.65-6.18-.54-2.71,1.63-1.45,4.87-4.08,8.27-2.11,2.75-6.66,5.46-10.55,3.75-3.14-1.37-5.12-5.32-4.8-9.68,17.16-37.61,34.31-75.22,51.44-112.83,1.94-.62,3.91-1.23,5.86-1.85.73-3.78,2.21-9.05,5.37-14.64,1.84-3.22,3.83-5.82,5.62-7.84,2.5-1.81,2.91-3.1,2.81-3.93-.29-2.73-6.1-3.28-13.87-7.31-3.53-1.85-6.25-3.75-8.03-5.09"/>
  <path class="cls-1" d="M272.7,181.71c-2.86.15-5.75.28-8.61.44.41,3.03.67,8.23-1.23,14.02-.44,1.36-1.66,4.69-4.25,8.34-1.48,2.1-2.99,3.68-4.21,4.83.55,2,1.1,4.02,1.67,6.02-17.22,35.06-34.45,70.12-51.67,105.17-2.01,1.47-4,2.92-6.01,4.4"/>
  <path class="cls-1" d="M197.11,294.79c-1.77-.7-7.68-2.85-12.66.12-2.01,1.18-3.11,2.7-5.09,5.89-1.93,3.09-4.76,7.71-6.18,14.64-1.21,5.78-.84,10.4-.77,11.41.43,4.99,1.49,5.5,1.38,9.13-.18,5.71-3.02,9.96-4.13,11.58-1.68,2.44-2.86,3.22-10.41,9.1-6.63,5.17-9.98,7.76-10.86,8.84-5,6.11-6.19,13.05-6.5,16.18,0,0-.62,6.07,1.3,12.68,4.96,17.13,24.4,26.93,27.32,28.37"/>
  <path class="cls-1" d="M396.4,84.47c-5.59.68-28.12,3.88-51.17,21.71-11.58,8.95-35.27,27.28-37.72,53.68-.99,10.6,2.05,16.16-1.63,29.19-3.59,12.72-7.97,12.71-12.94,26.5-1.68,4.69-7.17,20.46-3.74,38.88,2.29,12.34,5.97,11.86,7.09,21.11,1.92,15.96-8.16,24.7-17.61,44.91-9.2,19.62-11.46,36.49-13.53,51.82-1.82,13.64-3.08,33.94.98,58.98,78.43.04,156.89.08,235.32.12,15.65-49.69,10.37-71.59,1.92-82.3-2.48-3.15-7.85-8.64-10.94-18.28-2.38-7.46-2.49-14.62.82-35.05,5.15-31.81,7.94-29.88,7.09-40.27-1.05-13.07-5.43-15.55-7.71-35.25-1.45-12.52.32-11.49-.94-20.96-3.22-24.55-14.6-28.1-18.63-53.55-1.72-10.9-.02-12.56-2.9-17.6-5.98-10.44-16.82-9.49-24.58-22.01-3.81-6.15-1.81-7.37-4.94-11.81-9.73-13.96-35.66-10.84-44.22-9.81Z"/>
  <path class="cls-1" d="M304.16,115.65c6.06-7.24,16.19-17.7,31.1-26.52,10-5.92,29.82-17.65,56.59-15.75,20.13,1.43,35.28,9.95,43.77,15.86"/>
  <path class="cls-1" d="M265.78,431.42c-10.73-6.8-21.49-13.6-32.22-20.4-1.57-11.29-1.81-25.47,2.48-40.75.65-2.27,1.34-4.46,2.11-6.52"/>
  <path class="cls-1" d="M244.43,331.97c4.78-20.83,11.84-31.33,17.74-37.08.78-.77,5.46-5.27,8.95-12.59,1.6-3.4,4.97-10.67,2.09-16.87-.59-1.26-1.22-2.04-1.63-2.56-2.64-3.42-5.4-9.69-5.8-22.21"/>
  <path class="cls-1" d="M276.71,184.75c2.1-4.37,4.98-11.04,7.18-19.55,1.94-7.51,2.37-12.55,2.9-15.99,1.29-8.16,5.23-19.69,17.37-33.58"/>
  <path class="cls-1" d="M175.19,381.65c-3.74,6.07-7.46,12.11-11.2,18.18,9.21,5.56,18.42,11.12,27.64,16.68,3.84-6.29,7.68-12.6,11.5-18.88-9.29-5.34-18.63-10.66-27.94-15.98Z"/>
</svg>