<?xml version="1.0" encoding="UTF-8"?>
<svg id="Layer_1" data-name="Layer 1" xmlns="http://www.w3.org/2000/svg" viewBox="0 0 792 504">
  <defs>
    <style>
      .cls-1 {
        fill: none;
        stroke: #fafafa;
        stroke-miterlimit: 10;
        stroke-width: 2px;
      }
    </style>
  </defs>
  <path class="cls-1" d="M201.33,390.46c-50.43-17.59-73.49-67.63-59.88-103.2,9.24-24.13,35.09-40.92,64.86-44.66-6.33-34.36,6.82-69.36,34.02-90.38,29.4-22.71,70.3-25.29,103.14-6.38,52.58-61.96,138.31-74.27,194.58-36.15,41.09,27.84,62.65,79.99,57.42,133.97,28.88,23.04,41.83,59.54,32.96,92.5-9.57,35.57-40.43,51.68-45.71,54.33"/>
  <line class="cls-1" x1="200.99" y1="390.4" x2="583.17" y2="390.4"/>
  <path class="cls-1" d="M139.3,294.19c.66-6.45,3.83-30,23.83-49.01,15.99-15.2,33.96-19.17,41.07-20.35"/>
  <path class="cls-1" d="M212.17,188.84c1.04-3.92,13.88-49.24,59.2-65.07,36.46-12.74,67.79,2.75,73.34,5.61"/>
  <line class="cls-1" x1="344.17" y1="128.45" x2="343.37" y2="145.13"/>
  <path class="cls-1" d="M344.17,128.45c7.53-10.14,34.98-44.5,84.13-55.36,11.27-2.49,43.3-9.1,79.01,5.89,49.24,20.67,67.45,66.46,70.84,75.51"/>
  <line class="cls-1" x1="161.99" y1="365.51" x2="144.29" y2="404.88"/>
  <line class="cls-1" x1="143.38" y1="405.4" x2="635.35" y2="405.4"/>
  <line class="cls-1" x1="616.4" y1="361.76" x2="635.35" y2="405.4"/>
  <line class="cls-1" x1="144.38" y1="404.48" x2="144.38" y2="427.83"/>
  <line class="cls-1" x1="635.27" y1="404.99" x2="635.27" y2="428.34"/>
  <line class="cls-1" x1="143.38" y1="428.34" x2="636.27" y2="428.34"/>
</svg>